<svg width="200" height="200" viewBox="0 0 200 200" fill="none" xmlns="http://www.w3.org/2000/svg">
<rect width="200" height="200" fill="white"/>
<path d="M58.4758 153V151.5L61.1758 150.45C63.1758 149.65 64.5258 148.65 65.2258 147.45C66.0258 146.25 66.4258 144.65 66.4258 142.65V64.35C66.4258 62.25 66.0258 60.6 65.2258 59.4C64.5258 58.2 63.1758 57.25 61.1758 56.55L58.4758 55.5V54H101.526C113.726 54 122.526 56.25 127.926 60.75C133.326 65.15 136.026 70.75 136.026 77.55C136.026 82.65 134.026 87.3 130.026 91.5C126.126 95.6 119.376 98.5 109.776 100.2C120.776 101.4 128.826 104.3 133.926 108.9C139.026 113.4 141.576 118.9 141.576 125.4C141.576 128.6 140.876 131.85 139.476 135.15C138.076 138.35 135.676 141.3 132.276 144C128.976 146.7 124.426 148.9 118.626 150.6C112.826 152.2 105.476 153 96.5758 153H58.4758ZM88.6258 100.05H95.0758C101.776 100.05 106.576 98.5 109.476 95.4C112.476 92.3 113.976 86.9 113.976 79.2C113.976 71.2 112.626 65.5 109.926 62.1C107.226 58.7 102.826 57 96.7258 57H88.6258V100.05ZM88.6258 150H96.1258C103.626 150 109.176 148 112.776 144C116.476 140 118.326 133.75 118.326 125.25C118.326 117.25 116.576 111.55 113.076 108.15C109.576 104.75 103.826 103.05 95.8258 103.05H88.6258V150Z" fill="#070A2B"/>
</svg>
